<svg width="48" height="48" viewBox="0 0 48 48" fill="none" xmlns="http://www.w3.org/2000/svg">
<path d="M6.5625 24.7474C6.045 24.7474 5.625 25.1674 5.625 25.6849C5.625 26.2024 6.045 26.6224 6.5625 26.6224C7.08 26.6224 7.5 26.2024 7.5 25.6849C7.5 25.1674 7.08 24.7474 6.5625 24.7474Z" fill="#7C509A"/>
<path d="M48 28.0286C48 26.7049 47.3867 25.5222 46.4299 24.7482C47.649 23.7636 48.1829 22.2396 47.9427 20.7643C47.6166 18.7593 45.7522 17.2474 43.6058 17.2474C42.5713 17.2474 35.7755 17.2474 34.6754 17.2474L34.9533 16.4133C36.5422 11.6478 35.0666 6.55565 31.5695 3.57656C29.6162 1.89149 26.2838 2.45334 25.2601 5.24118C25.1888 5.43543 25.1838 5.64787 25.2458 5.8454C26.0246 8.32246 26.0356 9.98803 25.2839 11.5942C24.5045 13.2601 22.8276 15.0092 19.6768 17.4428C18.9205 18.0269 18.2594 18.3839 17.6201 18.7292C16.6131 19.273 15.6569 19.7894 14.6684 20.9973H11.25V20.0598C11.25 19.542 10.8303 19.1223 10.3125 19.1223H0.9375C0.419719 19.1223 0 19.542 0 20.0598V44.4348C0 44.9526 0.419719 45.3723 0.9375 45.3723H10.3125C10.8303 45.3723 11.25 44.9526 11.25 44.4348V41.6223H16.5083C19.2339 44.0434 22.7322 45.3723 26.4019 45.3723C28.5657 45.3723 35.7761 45.3723 38.1562 45.3723C40.4882 45.3723 42.375 43.4857 42.375 41.1535C42.375 40.2869 42.112 39.4806 41.6621 38.8098H41.9062C44.2382 38.8098 46.125 36.9232 46.125 34.591C46.125 33.6119 45.7888 32.7104 45.2271 31.9937C46.8291 31.4108 48 29.8685 48 28.0286ZM9.375 43.4974H1.875V20.9974H9.375V43.4974ZM43.7812 30.3724C42.8694 30.3724 35.7428 30.3724 34.7812 30.3724C34.2636 30.3724 33.8438 30.7921 33.8438 31.3099C33.8438 31.8277 34.2636 32.2474 34.7812 32.2474H41.9062C43.1986 32.2474 44.25 33.2988 44.25 34.5911C44.25 35.8867 43.2022 36.9349 41.9062 36.9349C39.2767 36.9349 36.9285 36.9349 34.7812 36.9349C34.2636 36.9349 33.8438 37.3546 33.8438 37.8724C33.8438 38.3902 34.2636 38.8099 34.7812 38.8099H38.1562C39.4486 38.8099 40.5 39.8613 40.5 41.1536C40.5 42.4492 39.4522 43.4974 38.1562 43.4974C35.7027 43.4974 28.413 43.4974 26.4019 43.4974C23.0835 43.4974 19.9261 42.2552 17.5112 39.9997C17.3376 39.8376 17.1088 39.7474 16.8713 39.7474H11.25V22.8724H15.1275C15.4255 22.8724 15.7057 22.7307 15.8825 22.4907C16.7281 21.3421 17.476 20.9381 18.5113 20.3791C19.1838 20.0159 19.946 19.6042 20.8232 18.9269C27.2419 13.9689 28.7107 10.9313 27.1381 5.62181C27.7597 4.42659 29.3103 4.10418 30.4115 5.05518C33.3996 7.66724 34.4842 11.8928 33.1747 15.8206L32.6992 17.2476H31.5C30.9823 17.2476 30.5625 17.6673 30.5625 18.1851C30.5625 18.7028 30.9823 19.1226 31.5 19.1226C32.9397 19.1226 42.1269 19.1226 43.6059 19.1226C44.8431 19.1226 45.9119 19.9579 46.0922 21.0657C46.3365 22.5656 45.1838 23.8101 43.7813 23.8101C42.8209 23.8101 35.6961 23.8101 34.7813 23.8101C34.2637 23.8101 33.8438 24.2298 33.8438 24.7476C33.8438 25.2653 34.2637 25.6851 34.7813 25.6851C35.6932 25.6851 42.8198 25.6851 43.7813 25.6851C45.0737 25.6851 46.1251 26.7365 46.1251 28.0288C46.125 29.3242 45.0772 30.3724 43.7812 30.3724Z" fill="#7C509A"/>
<path d="M6.5625 28.4974C6.04472 28.4974 5.625 28.9171 5.625 29.4349V38.8099C5.625 39.3277 6.04472 39.7474 6.5625 39.7474C7.08028 39.7474 7.5 39.3277 7.5 38.8099V29.4349C7.5 28.9171 7.08028 28.4974 6.5625 28.4974Z" fill="#7C509A"/>
</svg>
