<svg width="48" height="48" viewBox="0 0 48 48" fill="none" xmlns="http://www.w3.org/2000/svg">
<g clip-path="url(#clip0)">
<path d="M47.0625 23.3375H41.51C40.9922 23.3375 40.5725 23.7572 40.5725 24.275V25.0671H34.734C34.611 25.0671 34.489 25.0913 34.3755 25.1385L26.8968 28.2338C26.0314 28.5923 25.359 29.2668 25.0042 30.1337C24.649 31.0001 24.6544 31.9523 25.0196 32.8151L25.0448 32.8748C25.2616 33.3867 25.581 33.8221 25.9688 34.1664C24.8306 34.4751 23.6371 34.5 22.477 34.2345L15.1348 32.5532C14.2365 32.3478 13.3144 32.5085 12.5387 33.0062C11.7635 33.5035 11.2328 34.2748 11.0453 35.1768C10.6736 36.9639 11.7686 38.7162 13.5377 39.1659L22.2982 41.3925C23.0402 41.5807 23.7924 41.6744 24.542 41.6744C25.6659 41.6744 26.7843 41.4639 27.8518 41.0449L38.9934 36.6753H40.5725V37.1686C40.5725 37.6864 40.9926 38.1061 41.51 38.1061H47.0625C47.5803 38.1061 48 37.6864 48 37.1686V24.275C48 23.7572 47.5803 23.3375 47.0625 23.3375ZM38.8158 34.8003C38.6986 34.8003 38.5825 34.8223 38.4738 34.8647L27.167 39.2996C25.7545 39.8533 24.2307 39.9485 22.76 39.575L13.9995 37.3484C13.2056 37.1466 12.7141 36.3604 12.8808 35.5583C12.965 35.1533 13.203 34.8073 13.5513 34.5842C13.8003 34.4242 14.0834 34.3418 14.372 34.3418C14.4862 34.3418 14.6016 34.3546 14.7162 34.381L22.0584 36.0619C23.825 36.4662 25.6527 36.3365 27.3446 35.6862L29.4752 34.8669C29.5192 34.8519 29.5628 34.8358 29.6063 34.819C31.4898 34.0928 33.8936 33.1685 34.4103 32.9696L34.511 32.9308C34.994 32.7451 35.2354 32.2024 35.0497 31.7194C34.864 31.236 34.3217 30.995 33.8379 31.1807C33.8379 31.1807 33.7995 31.1957 33.7284 31.2228L28.8421 33.1018C28.0137 33.3702 27.1179 32.9623 26.7715 32.1438L26.7459 32.0837C26.5771 31.6853 26.5749 31.2451 26.7389 30.8445C26.903 30.4438 27.2135 30.1318 27.6138 29.9663L34.9204 26.9421H40.5725V34.8003H38.8158ZM46.125 36.2311H42.4475V25.2125H46.125V36.2311Z" fill="#7C509A"/>
<path d="M9.12964 22.9457H7.42786V14.1859H7.6875C8.38074 14.1859 9.07288 14.0189 9.68921 13.7029C9.71814 13.6879 9.7467 13.6718 9.7738 13.6538L15.8452 9.6925C16.6842 9.28088 17.7037 9.37463 18.4545 9.93567L18.8928 10.2623C18.8661 10.3 18.8405 10.3385 18.8145 10.3762C18.6987 10.5447 18.5874 10.7164 18.4827 10.8918C17.8345 11.9747 17.4181 13.1931 17.265 14.4357C16.626 14.5045 16.0342 14.7865 15.5735 15.2468C15.0399 15.7804 14.7458 16.4908 14.7458 17.2467C14.7458 18.8057 16.0144 20.0742 17.5734 20.0742H24.5138C24.8969 20.0742 25.2576 20.2236 25.5282 20.4935C25.7999 20.766 25.9497 21.1271 25.9501 21.5101C25.9497 22.0822 25.6146 22.5978 25.0928 22.8252C25.0323 22.8519 24.9778 22.8717 24.9265 22.886C24.9218 22.8875 24.9174 22.8889 24.9126 22.8904C24.7863 22.927 24.6522 22.9457 24.5138 22.9457H16.6278C16.1104 22.9457 15.6903 23.3654 15.6903 23.8832C15.6903 24.401 16.1104 24.8207 16.6278 24.8207H24.5138C24.7559 24.8207 24.9946 24.7943 25.2268 24.7434C25.6205 24.7939 26.0193 24.8214 26.4159 24.8214C31.5015 24.8214 35.6393 20.684 35.6393 15.598C35.6393 10.5125 31.5015 6.375 26.4159 6.375C24.0725 6.375 21.8295 7.26746 20.1321 8.84802L19.5762 8.43311C18.2443 7.43811 16.4275 7.2854 14.9487 8.04456C14.9198 8.0592 14.892 8.07568 14.8645 8.09326L8.79382 12.0542C8.45105 12.2223 8.06946 12.3105 7.6875 12.3105H7.42749V11.9714C7.42749 11.4536 7.00781 11.0339 6.48999 11.0339H0.9375C0.419678 11.0339 0 11.4536 0 11.9714V24.865C0 25.3828 0.419678 25.8025 0.9375 25.8025H6.48999C7.00781 25.8025 7.42749 25.3828 7.42749 24.865V24.8207H9.12964C9.64709 24.8207 10.0671 24.401 10.0671 23.8832C10.0671 23.3654 9.64709 22.9457 9.12964 22.9457ZM16.6208 17.2467C16.6208 16.9918 16.7197 16.7523 16.8995 16.5729C16.9933 16.4791 17.1035 16.4077 17.2236 16.3605C17.2745 16.9874 17.3888 17.6012 17.5646 18.1989C17.0435 18.1941 16.6208 17.7689 16.6208 17.2467ZM33.7639 15.5984C33.7639 19.2682 31.0594 22.3187 27.5383 22.8607C27.7266 22.4381 27.8251 21.973 27.8251 21.5101C27.8251 20.9421 27.6819 20.3961 27.4138 19.9113C27.8207 19.8472 28.1964 19.6593 28.4934 19.3623C28.8647 18.9913 29.0691 18.498 29.0691 17.9733V16.5868C29.0691 15.5035 28.1876 14.6221 27.1044 14.6221H25.7289C25.6794 14.6221 25.6392 14.5818 25.6392 14.5323V13.2235C25.6392 13.1741 25.6794 13.1342 25.7289 13.1342H26.4163H26.4166H26.417H27.1044C27.1538 13.1342 27.1941 13.1741 27.1941 13.2235C27.1941 13.7413 27.6138 14.161 28.1316 14.161C28.649 14.161 29.0691 13.7413 29.0691 13.2235C29.0691 12.2252 28.3195 11.4001 27.3541 11.2767V10.9519C27.3541 10.4341 26.9344 10.0144 26.4166 10.0144C25.8988 10.0144 25.4791 10.4341 25.4791 10.9519V11.2767C24.5134 11.4001 23.7642 12.2252 23.7642 13.2235V14.5323C23.7642 15.6156 24.6456 16.4971 25.7289 16.4971H27.1044C27.1538 16.4971 27.1941 16.5374 27.1941 16.5868V17.9733C27.1941 17.9978 27.1853 18.019 27.1677 18.0366C27.1501 18.0538 27.1293 18.0626 27.1044 18.0626H25.7289C25.6794 18.0626 25.6392 18.0223 25.6392 17.9733V17.8462C25.6392 17.3284 25.2195 16.9087 24.7017 16.9087C24.1838 16.9087 23.7642 17.3284 23.7642 17.8462V17.9733C23.7642 18.0494 23.7697 18.1245 23.7781 18.1989H19.541C19.2268 17.3719 19.0679 16.4993 19.0679 15.5984C19.0679 14.2247 19.4586 12.8496 20.1947 11.6884C20.4064 11.3547 20.6422 11.0365 20.9041 10.7402C22.299 9.15747 24.3065 8.25 26.4159 8.25C30.4677 8.25 33.7639 11.5463 33.7639 15.5984ZM5.55249 23.9279H1.875V12.9089H5.55249V23.9279Z" fill="#7C509A"/>
<path d="M13.6303 23.3635C13.4102 23.027 12.9788 22.8721 12.594 22.9823C12.2219 23.0892 11.9505 23.4221 11.9172 23.8074C11.8835 24.1967 12.1095 24.5768 12.4647 24.7368C12.8166 24.8958 13.2403 24.8196 13.5142 24.5468C13.8266 24.2348 13.875 23.7301 13.6303 23.3635Z" fill="#7C509A"/>
</g>
<defs>
<clipPath id="clip0">
<rect width="48" height="48" fill="white"/>
</clipPath>
</defs>
</svg>
