<svg width="110" height="22" viewBox="0 0 110 22" fill="none" xmlns="http://www.w3.org/2000/svg">
<path d="M6.592 10.232H3.904V17H0.04V0.199999H3.904V6.992H6.688L11.104 0.199999H15.208L9.712 8.312L15.376 17H10.96L6.592 10.232ZM22.7699 17.192C21.4099 17.192 20.1859 16.912 19.0979 16.352C18.0259 15.776 17.1859 14.984 16.5779 13.976C15.9699 12.968 15.6659 11.824 15.6659 10.544C15.6659 9.264 15.9699 8.12 16.5779 7.112C17.1859 6.104 18.0259 5.32 19.0979 4.76C20.1859 4.184 21.4099 3.896 22.7699 3.896C24.1299 3.896 25.3459 4.184 26.4179 4.76C27.4899 5.32 28.3299 6.104 28.9379 7.112C29.5459 8.12 29.8499 9.264 29.8499 10.544C29.8499 11.824 29.5459 12.968 28.9379 13.976C28.3299 14.984 27.4899 15.776 26.4179 16.352C25.3459 16.912 24.1299 17.192 22.7699 17.192ZM22.7699 14.12C23.7299 14.12 24.5139 13.8 25.1219 13.16C25.7459 12.504 26.0579 11.632 26.0579 10.544C26.0579 9.456 25.7459 8.592 25.1219 7.952C24.5139 7.296 23.7299 6.968 22.7699 6.968C21.8099 6.968 21.0179 7.296 20.3939 7.952C19.7699 8.592 19.4579 9.456 19.4579 10.544C19.4579 11.632 19.7699 12.504 20.3939 13.16C21.0179 13.8 21.8099 14.12 22.7699 14.12ZM42.289 10.256C43.809 10.768 44.569 11.792 44.569 13.328C44.569 14.496 44.129 15.4 43.249 16.04C42.369 16.68 41.057 17 39.313 17H32.425V4.088H39.025C40.641 4.088 41.905 4.384 42.817 4.976C43.729 5.552 44.185 6.368 44.185 7.424C44.185 8.064 44.017 8.632 43.681 9.128C43.361 9.608 42.897 9.984 42.289 10.256ZM35.857 9.392H38.689C40.001 9.392 40.657 8.928 40.657 8C40.657 7.088 40.001 6.632 38.689 6.632H35.857V9.392ZM39.001 14.456C40.377 14.456 41.065 13.984 41.065 13.04C41.065 12.544 40.905 12.184 40.585 11.96C40.265 11.72 39.761 11.6 39.073 11.6H35.857V14.456H39.001ZM54.9627 3.896C56.1627 3.896 57.2507 4.176 58.2267 4.736C59.2187 5.28 59.9947 6.056 60.5547 7.064C61.1147 8.056 61.3947 9.216 61.3947 10.544C61.3947 11.872 61.1147 13.04 60.5547 14.048C59.9947 15.04 59.2187 15.816 58.2267 16.376C57.2507 16.92 56.1627 17.192 54.9627 17.192C53.3147 17.192 52.0187 16.672 51.0747 15.632V21.656H47.3307V4.088H50.9067V5.576C51.8347 4.456 53.1867 3.896 54.9627 3.896ZM54.3147 14.12C55.2747 14.12 56.0587 13.8 56.6667 13.16C57.2907 12.504 57.6027 11.632 57.6027 10.544C57.6027 9.456 57.2907 8.592 56.6667 7.952C56.0587 7.296 55.2747 6.968 54.3147 6.968C53.3547 6.968 52.5627 7.296 51.9387 7.952C51.3307 8.592 51.0267 9.456 51.0267 10.544C51.0267 11.632 51.3307 12.504 51.9387 13.16C52.5627 13.8 53.3547 14.12 54.3147 14.12ZM64.0188 4.088H67.7388V11.768L74.0268 4.088H77.4588V17H73.7388V9.32L67.4748 17H64.0188V4.088ZM86.7458 12.104H84.8018V17H81.0578V4.088H84.8018V9.104H86.8178L90.3218 4.088H94.3058L89.7938 10.28L94.6178 17H90.2018L86.7458 12.104ZM96.4563 4.088H100.176V11.768L106.464 4.088H109.896V17H106.176V9.32L99.9123 17H96.4563V4.088Z" fill="#7C509A"/>
</svg>
